<svg width="29" height="29" viewBox="0 0 29 29" fill="none" xmlns="http://www.w3.org/2000/svg">
<path d="M21.7488 0.00603394L17.9882 0C13.7633 0 11.033 2.80125 11.033 7.13694V10.4275H7.25184C6.92511 10.4275 6.66052 10.6924 6.66052 11.0192V15.7869C6.66052 16.1136 6.92541 16.3782 7.25184 16.3782H11.033V28.4087C11.033 28.7354 11.2976 29 11.6243 29H16.5576C16.8843 29 17.1489 28.7351 17.1489 28.4087V16.3782H21.5699C21.8967 16.3782 22.1612 16.1136 22.1612 15.7869L22.1631 11.0192C22.1631 10.8623 22.1006 10.712 21.9899 10.601C21.8792 10.49 21.7283 10.4275 21.5714 10.4275H17.1489V7.63806C17.1489 6.29732 17.4684 5.61669 19.2149 5.61669L21.7482 5.61578C22.0747 5.61578 22.3392 5.35089 22.3392 5.02446V0.59736C22.3392 0.271225 22.075 0.00663733 21.7488 0.00603394Z" fill="white"/>
</svg>
