<svg width="30" height="30" viewBox="0 0 30 30" fill="none" xmlns="http://www.w3.org/2000/svg">
<path d="M28.764 5.35159H1.23598C0.55336 5.35159 0 5.90495 0 6.58757V23.4124C0 24.095 0.55336 24.6484 1.23598 24.6484H28.764C29.4466 24.6484 30 24.095 30 23.4124V6.58757C30 5.90495 29.4466 5.35159 28.764 5.35159ZM1.23598 6.32226H28.764C28.8802 6.32282 28.9824 6.39886 29.0164 6.50992L15 15.2653L0.983607 6.50992C1.01758 6.39886 1.11982 6.32282 1.23598 6.32226ZM0.970664 7.61648L11.0526 13.9129L0.970664 21.9111V7.61648ZM29.0293 23.4059C29.0293 23.5525 28.9105 23.6713 28.764 23.6713H1.23598C1.08949 23.6713 0.970664 23.5524 0.970664 23.4059V23.1471L11.9262 14.4888L14.7412 16.2489C14.8993 16.3487 15.1007 16.3487 15.2588 16.2489L18.0738 14.4888L29.0293 23.1471V23.4059ZM29.0293 21.9111L18.9215 13.9387L29.0293 7.67472V21.9111Z" fill="white"/>
</svg>
