<svg width="29" height="29" viewBox="0 0 29 29" fill="none" xmlns="http://www.w3.org/2000/svg">
<path d="M29 5.50894C27.9326 5.9819 26.7873 6.30265 25.584 6.44585C26.8127 5.7101 27.7532 4.54308 28.1989 3.15677C27.0464 3.83813 25.7743 4.33288 24.4188 4.60108C23.3333 3.44312 21.7893 2.72186 20.0768 2.72186C16.7914 2.72186 14.1275 5.38574 14.1275 8.66938C14.1275 9.13508 14.1801 9.58994 14.2816 10.0249C9.338 9.77659 4.9544 7.40811 2.02052 3.80913C1.50767 4.68623 1.21592 5.70825 1.21592 6.79921C1.21592 8.86328 2.26698 10.6845 3.86169 11.75C2.88673 11.7174 1.96977 11.4492 1.16701 11.0034V11.0777C1.16701 13.959 3.21838 16.3638 5.93841 16.9111C5.44006 17.0452 4.91455 17.1195 4.3709 17.1195C3.98674 17.1195 3.61524 17.0814 3.25099 17.0089C4.00844 19.3738 6.20481 21.0935 8.80709 21.1407C6.77202 22.7354 4.206 23.6831 1.41892 23.6831C0.938709 23.6831 0.465706 23.6541 0 23.6016C2.63308 25.2924 5.75906 26.2782 9.11879 26.2782C20.0624 26.2782 26.0444 17.2137 26.0444 9.35258L26.0244 8.58243C27.1932 7.74877 28.2044 6.70136 29 5.50894Z" fill="white"/>
</svg>
